<svg width="24" height="24" viewBox="0 0 24 24" fill="none" xmlns="http://www.w3.org/2000/svg">
<path d="M8.07062 7.31409C8.60095 7.31409 9.10962 7.52508 9.48468 7.90002L9.48859 7.90295C9.69903 8.11263 9.95679 8.3611 10.2562 8.64319L12.3167 10.5846L14.3743 8.64124C14.6722 8.35993 14.9279 8.1123 15.137 7.90393C15.5105 7.53223 16.0163 7.32331 16.5433 7.3219C17.0701 7.3206 17.5761 7.52747 17.9515 7.89709C18.3269 8.26681 18.5414 8.76968 18.5482 9.29651C18.5548 9.82003 18.355 10.3244 17.9935 10.7028L12.3118 16.3844L6.63312 10.7057C6.26805 10.3287 6.06553 9.82323 6.06964 9.29846C6.07382 8.77504 6.2842 8.27229 6.65656 7.90002C7.03152 7.52517 7.54042 7.31419 8.07062 7.31409Z" stroke="white" stroke-width="6"/>
</svg>
