<svg width="24" height="24" viewBox="0 0 24 24" fill="none" xmlns="http://www.w3.org/2000/svg">
<path d="M8.07062 5.31409C9.13116 5.31409 10.1487 5.73526 10.8987 6.48499L10.8997 6.48596C11.0921 6.67766 11.3359 6.9127 11.6282 7.18811L12.3148 7.83459L13.0003 7.18713C13.2917 6.91196 13.5349 6.67822 13.7269 6.48694C14.4738 5.74358 15.4836 5.32474 16.5374 5.3219C17.5912 5.31908 18.6039 5.73197 19.3548 6.47131C20.1057 7.21077 20.5347 8.21731 20.5482 9.27112C20.5615 10.3249 20.1579 11.341 19.4261 12.0992L12.3128 19.2125L5.18683 12.0875C4.46262 11.3347 4.06145 10.3279 4.06964 9.28284C4.07793 8.23315 4.49932 7.22781 5.24249 6.48499H5.24347C5.99346 5.73542 7.01027 5.31419 8.07062 5.31409Z" stroke="white" stroke-width="2"/>
</svg>
