<svg width="24" height="24" viewBox="0 0 24 24" fill="none" xmlns="http://www.w3.org/2000/svg">
<path d="M12 20.4C13.3255 20.4 14.4 19.3255 14.4 18C14.4 16.6745 13.3255 15.6 12 15.6C10.6745 15.6 9.59998 16.6745 9.59998 18C9.59998 19.3255 10.6745 20.4 12 20.4Z" fill="white"/>
<path d="M12 14.4C13.3255 14.4 14.4 13.3255 14.4 12C14.4 10.6745 13.3255 9.59998 12 9.59998C10.6745 9.59998 9.59998 10.6745 9.59998 12C9.59998 13.3255 10.6745 14.4 12 14.4Z" fill="white"/>
<path d="M12 8.39998C13.3255 8.39998 14.4 7.32546 14.4 5.99998C14.4 4.67449 13.3255 3.59998 12 3.59998C10.6745 3.59998 9.59998 4.67449 9.59998 5.99998C9.59998 7.32546 10.6745 8.39998 12 8.39998Z" fill="white"/>
</svg>
