<svg width="90" height="18" viewBox="0 0 90 18" fill="none" xmlns="http://www.w3.org/2000/svg">
<g clip-path="url(#clip0_49_308)">
<path d="M7.72555 9.31004V13.0482C7.72555 13.7535 8.10491 14.1061 8.86362 14.1061H11.6043V17.6327H8.23652C6.85845 17.6327 5.76684 17.2565 4.96168 16.5042C4.15652 15.7518 3.75394 14.7331 3.75394 13.4478V9.31004H0.0610352V5.80702H2.89458C3.25072 5.80702 3.49845 5.73649 3.63781 5.59543C3.77716 5.4387 3.84684 5.18009 3.84684 4.81959V2.68017H7.72555V5.80702H12.301V9.31004H7.72555ZM19.9882 17.9383C18.5018 17.9383 17.2166 17.6953 16.1327 17.2095C15.0489 16.7079 14.2128 16.0026 13.6244 15.0936C13.0515 14.1845 12.765 13.1109 12.765 11.8727V11.614C12.765 10.3602 13.0515 9.27869 13.6244 8.36964C14.1973 7.44489 15.0257 6.73959 16.1095 6.25372C17.1934 5.75216 18.4864 5.50139 19.9882 5.50139C22.2333 5.50139 23.9831 6.04997 25.2373 7.1471C26.5069 8.22857 27.1418 9.71756 27.1418 11.614V11.8727C27.1418 13.7535 26.5069 15.2346 25.2373 16.3161C23.9831 17.3976 22.2333 17.9383 19.9882 17.9383ZM19.965 14.2942C20.9559 14.2942 21.7147 14.0905 22.2411 13.6829C22.7831 13.2598 23.054 12.6485 23.054 11.8491V11.6611C23.054 10.846 22.7831 10.2269 22.2411 9.80376C21.7147 9.36491 20.9559 9.14547 19.965 9.14547C18.9585 9.14547 18.1844 9.35706 17.6424 9.78025C17.116 10.2034 16.8527 10.8304 16.8527 11.6611V11.8491C16.8527 12.6485 17.1237 13.2598 17.6657 13.6829C18.2076 14.0905 18.9741 14.2942 19.965 14.2942ZM36.9331 5.50139C38.9151 5.48572 40.4248 6.01861 41.4621 7.10008C42.4995 8.16589 43.0183 9.76458 43.0183 11.8962V17.6327H39.0699V11.8962C39.0699 11.0028 38.8298 10.3288 38.3499 9.87429C37.8853 9.40408 37.1964 9.16898 36.2828 9.16898C35.6479 9.16898 35.075 9.31004 34.5641 9.59216C34.0685 9.87429 33.6815 10.274 33.4028 10.7912V17.6327H29.4544V5.80702H33.1241L33.217 6.79445C34.2079 5.96375 35.4466 5.53274 36.9331 5.50139ZM49.7058 5.80702V17.6327H45.7574V5.80702H49.7058ZM47.7316 4.65502C47.0349 4.65502 46.462 4.44343 46.0129 4.02025C45.5794 3.59706 45.3626 3.05633 45.3626 2.39804C45.3626 1.73976 45.5794 1.20686 46.0129 0.79935C46.4464 0.376166 47.0194 0.164574 47.7316 0.164574C48.4438 0.164574 49.0169 0.368329 49.4503 0.77584C49.8838 1.18335 50.1007 1.72408 50.1007 2.39804C50.1007 3.072 49.8762 3.62057 49.4271 4.04376C48.9936 4.45127 48.4284 4.65502 47.7316 4.65502ZM58.9528 17.9383C57.4974 17.9383 56.2276 17.6953 55.1438 17.2095C54.0754 16.7079 53.2547 16.0026 52.6818 15.0936C52.109 14.1845 51.8225 13.1187 51.8225 11.8962V11.614C51.8225 10.3602 52.109 9.27869 52.6818 8.36964C53.2547 7.44489 54.0754 6.73959 55.1438 6.25372C56.2276 5.75216 57.4974 5.50139 58.9528 5.50139C60.3153 5.50139 61.523 5.72865 62.576 6.18319C63.629 6.62204 64.4495 7.24899 65.0379 8.064C65.6264 8.86335 65.9205 9.78809 65.9205 10.8382V10.9558H61.8328V10.8382C61.8328 10.3366 61.5695 9.92915 61.0431 9.61568C60.5167 9.3022 59.8199 9.14547 58.9528 9.14547C56.9243 9.14547 55.9102 9.99184 55.9102 11.6846V11.8491C55.9102 13.4792 56.9243 14.2942 58.9528 14.2942C59.8508 14.2942 60.5554 14.1453 61.0663 13.8475C61.5773 13.534 61.8328 13.1187 61.8328 12.6015V12.4839H65.9205V12.6015C65.9205 13.6829 65.634 14.6312 65.0612 15.4462C64.5038 16.2456 63.6987 16.8647 62.6457 17.3035C61.5927 17.7267 60.3618 17.9383 58.9528 17.9383ZM83.0361 14.1061V17.6327H80.7832C79.4051 17.6327 78.4064 17.2095 77.7871 16.3631C77.1832 16.8647 76.4554 17.2565 75.6039 17.5386C74.7677 17.8051 73.8387 17.9383 72.8168 17.9383C71.222 17.9383 69.9754 17.6248 69.0774 16.9979C68.1794 16.3553 67.7303 15.4619 67.7303 14.3177C67.7303 13.3616 68.0633 12.6015 68.729 12.0372C69.3948 11.4573 70.3703 11.0968 71.6555 10.9558L77.1368 10.3445C77.0439 9.85862 76.7806 9.49812 76.3471 9.26302C75.9136 9.02792 75.3019 8.91037 74.5123 8.91037C73.6607 8.91037 73.0026 9.02008 72.5381 9.23951C72.0736 9.44326 71.8413 9.74107 71.8413 10.1329V10.2034H67.8232V10.1329C67.8232 9.19249 68.0941 8.37748 68.6361 7.68784C69.1936 6.98253 69.9754 6.4418 70.9819 6.06563C72.0039 5.68947 73.1962 5.50139 74.5587 5.50139C76.6336 5.50139 78.2516 5.97159 79.4129 6.912C80.5742 7.85241 81.1548 9.16114 81.1548 10.8382V13.3773C81.1548 13.8632 81.4414 14.1061 82.0142 14.1061H83.0361ZM73.3277 14.9525C74.1174 14.9525 74.8606 14.8271 75.5574 14.5763C76.2696 14.3256 76.8116 14.0042 77.1832 13.6124V12.766L72.7936 13.2833C72.0503 13.3773 71.6787 13.6594 71.6787 14.1296C71.6787 14.6782 72.2283 14.9525 73.3277 14.9525ZM87.5507 17.9383C86.8693 17.9383 86.3119 17.7267 85.8784 17.3035C85.4449 16.8647 85.2281 16.3082 85.2281 15.6343C85.2281 14.9603 85.4449 14.4196 85.8784 14.0121C86.3119 13.5889 86.8693 13.3773 87.5507 13.3773C88.2474 13.3773 88.8048 13.5889 89.2229 14.0121C89.6564 14.4196 89.8732 14.9603 89.8732 15.6343C89.8732 16.3239 89.6564 16.8803 89.2229 17.3035C88.8048 17.7267 88.2474 17.9383 87.5507 17.9383Z" fill="#AAFF7C"/>
</g>
<defs>
<clipPath id="clip0_49_308">
<rect width="90" height="18" fill="white"/>
</clipPath>
</defs>
</svg>
