<svg width="105" height="84" viewBox="0 0 105 84" fill="none" xmlns="http://www.w3.org/2000/svg">
<path d="M42.2401 36.096V56.448C42.2401 60.288 44.3307 62.208 48.5121 62.208H63.6161V81.408H45.0561C37.4614 81.408 31.4454 79.36 27.0081 75.264C22.5707 71.168 20.3521 65.6214 20.3521 58.624V36.096H6.24657e-05V17.024H15.6161C17.5787 17.024 18.9441 16.64 19.7121 15.872C20.4801 15.0187 20.8641 13.6107 20.8641 11.648V1.52588e-05H42.2401V17.024H67.4561V36.096H42.2401ZM91.9151 83.072C88.1604 83.072 85.0884 81.92 82.6991 79.616C80.3097 77.2267 79.1151 74.1974 79.1151 70.528C79.1151 66.8587 80.3097 63.9147 82.6991 61.696C85.0884 59.392 88.1604 58.24 91.9151 58.24C95.7551 58.24 98.8271 59.392 101.131 61.696C103.52 63.9147 104.715 66.8587 104.715 70.528C104.715 74.2827 103.52 77.312 101.131 79.616C98.8271 81.92 95.7551 83.072 91.9151 83.072Z" fill="#AAFF7C"/>
</svg>
