<svg width="16" height="17" viewBox="0 0 16 17" fill="none" xmlns="http://www.w3.org/2000/svg">
<path d="M11.0246 6.59996L8.40662 3.97496C8.36701 3.40585 8.50262 2.83825 8.79523 2.34852C9.08783 1.85878 9.52339 1.47039 10.0433 1.23558C10.5632 1.00077 11.1426 0.930814 11.7035 1.03511C12.2644 1.1394 12.7798 1.41295 13.1806 1.81896C13.5853 2.22076 13.8577 2.73654 13.9613 3.29732C14.0649 3.8581 13.9947 4.43715 13.7603 4.95701C13.5259 5.47686 13.1383 5.91275 12.6494 6.20635C12.1605 6.49996 11.5937 6.63728 11.0246 6.59996ZM1.29462 11.71L7.73462 5.27696L9.71562 7.25796L3.27562 13.698L1.30162 11.71H1.29462ZM0.314617 13.691L1.79162 12.207L2.78562 13.201L1.30162 14.685L0.307617 13.691H0.314617ZM6.99962 11.5L8.39962 10.1V15H6.99962V11.5Z" fill="white"/>
</svg>
