<svg width="16" height="16" viewBox="0 0 16 16" fill="none" xmlns="http://www.w3.org/2000/svg">
<path d="M3.40033 10.7C3.15588 10.2777 2.97255 9.8444 2.85033 9.39996C2.7281 8.95551 2.66699 8.49996 2.66699 8.03329C2.66699 6.5444 3.18366 5.27774 4.21699 4.23329C5.25033 3.18885 6.51144 2.66663 8.00033 2.66663H8.11699L7.05033 1.59996L7.98366 0.666626L10.6503 3.33329L7.98366 5.99996L7.05033 5.06663L8.11699 3.99996H8.00033C6.88921 3.99996 5.94477 4.39174 5.16699 5.17529C4.38921 5.95885 4.00033 6.91152 4.00033 8.03329C4.00033 8.32218 4.03366 8.60552 4.10033 8.88329C4.16699 9.16107 4.26699 9.43329 4.40033 9.69996L3.40033 10.7ZM8.01699 15.3333L5.35033 12.6666L8.01699 9.99996L8.95033 10.9333L7.88366 12H8.00033C9.11144 12 10.0559 11.6082 10.8337 10.8246C11.6114 10.0411 12.0003 9.0884 12.0003 7.96663C12.0003 7.67774 11.967 7.3944 11.9003 7.11663C11.8337 6.83885 11.7337 6.56663 11.6003 6.29996L12.6003 5.29996C12.8448 5.72218 13.0281 6.15551 13.1503 6.59996C13.2725 7.0444 13.3337 7.49996 13.3337 7.96663C13.3337 9.45551 12.817 10.7222 11.7837 11.7666C10.7503 12.8111 9.48921 13.3333 8.00033 13.3333H7.88366L8.95033 14.4L8.01699 15.3333Z" fill="white"/>
</svg>
