<svg width="42" height="42" viewBox="0 0 42 42" fill="none" xmlns="http://www.w3.org/2000/svg">
<rect x="0.5" y="0.5" width="41" height="41" rx="20.5" stroke="white" stroke-opacity="0.3"/>
<path fill-rule="evenodd" clip-rule="evenodd" d="M15.9762 16.8121C16.6073 16.1812 17.4632 15.8268 18.3556 15.8268C19.2479 15.8268 20.1038 16.1812 20.7349 16.8121C20.8583 16.9351 21.0171 17.0881 21.2114 17.2712C21.4053 17.0881 21.5639 16.9351 21.6873 16.8121C22.3157 16.1866 23.1657 15.8344 24.0524 15.832C24.939 15.8296 25.7908 16.1773 26.4226 16.7994C27.0544 17.4216 27.4152 18.2679 27.4265 19.1545C27.4378 20.0411 27.0987 20.8964 26.483 21.5344L21.6866 26.3308C21.5604 26.457 21.3892 26.5278 21.2107 26.5278C21.0323 26.5278 20.8611 26.457 20.7349 26.3308L15.9385 21.5351C15.3234 20.9007 14.9824 20.0497 14.9894 19.166C14.9963 18.2823 15.3512 17.4368 15.9762 16.8121Z" fill="white"/>
</svg>
