<svg width="36" height="36" viewBox="0 0 36 36" fill="none" xmlns="http://www.w3.org/2000/svg">
<g opacity="0.4">
<rect x="0.5" y="0.5" width="35" height="35" rx="17.5" stroke="white"/>
<path fill-rule="evenodd" clip-rule="evenodd" d="M11.78 12.8149C12.5614 12.0338 13.621 11.595 14.7258 11.595C15.8307 11.595 16.8903 12.0338 17.6717 12.8149C17.8244 12.9671 18.0211 13.1566 18.2617 13.3832C18.5017 13.1566 18.6981 12.9671 18.8508 12.8149C19.6289 12.0405 20.6812 11.6044 21.779 11.6015C22.8768 11.5985 23.9314 12.029 24.7137 12.7992C25.4959 13.5695 25.9425 14.6173 25.9565 15.715C25.9705 16.8128 25.5507 17.8716 24.7883 18.6616L18.85 24.5999C18.6937 24.7561 18.4818 24.8439 18.2608 24.8439C18.0399 24.8439 17.8279 24.7561 17.6717 24.5999L11.7333 18.6624C10.9717 17.8769 10.5496 16.8234 10.5582 15.7293C10.5667 14.6352 11.0062 13.5884 11.78 12.8149Z" fill="white"/>
</g>
</svg>
