<svg width="36" height="36" viewBox="0 0 36 36" fill="none" xmlns="http://www.w3.org/2000/svg">
<rect width="36" height="36" rx="18" fill="#2C2C2C"/>
<path d="M18 25C19.1046 25 20 24.1046 20 23C20 21.8954 19.1046 21 18 21C16.8954 21 16 21.8954 16 23C16 24.1046 16.8954 25 18 25Z" fill="white"/>
<path d="M18 20C19.1046 20 20 19.1046 20 18C20 16.8954 19.1046 16 18 16C16.8954 16 16 16.8954 16 18C16 19.1046 16.8954 20 18 20Z" fill="white"/>
<path d="M18 15C19.1046 15 20 14.1046 20 13C20 11.8954 19.1046 11 18 11C16.8954 11 16 11.8954 16 13C16 14.1046 16.8954 15 18 15Z" fill="white"/>
</svg>
