<svg width="36" height="36" viewBox="0 0 36 36" fill="none" xmlns="http://www.w3.org/2000/svg">
<rect width="36" height="36" rx="18" fill="#2C2C2C"/>
<path fill-rule="evenodd" clip-rule="evenodd" d="M14.9505 10.5H21.0495C21.714 10.5 22.287 10.5 22.746 10.5615C23.2372 10.6275 23.709 10.7767 24.0907 11.1592C24.4733 11.5417 24.6225 12.0127 24.6885 12.504C24.75 12.963 24.75 13.536 24.75 14.2005V14.9625C24.75 15.1614 24.671 15.3522 24.5303 15.4928C24.3897 15.6335 24.1989 15.7125 24 15.7125C23.8011 15.7125 23.6103 15.6335 23.4697 15.4928C23.329 15.3522 23.25 15.1614 23.25 14.9625V14.25C23.25 13.5217 23.2485 13.0508 23.202 12.7042C23.1578 12.3787 23.0873 12.2767 23.0303 12.2198C22.9733 12.1628 22.8713 12.0922 22.5458 12.048C22.2 12.0015 21.7282 12 21 12H18.75V24.75C18.75 24.9489 18.671 25.1397 18.5303 25.2803C18.3897 25.421 18.1989 25.5 18 25.5C17.8011 25.5 17.6103 25.421 17.4697 25.2803C17.329 25.1397 17.25 24.9489 17.25 24.75V12H15C14.2717 12 13.8008 12.0015 13.4543 12.048C13.1288 12.0922 13.0268 12.1628 12.9698 12.2198C12.9128 12.2767 12.8423 12.3787 12.798 12.7042C12.7515 13.05 12.75 13.5217 12.75 14.25V14.9625C12.75 15.1614 12.671 15.3522 12.5303 15.4928C12.3897 15.6335 12.1989 15.7125 12 15.7125C11.8011 15.7125 11.6103 15.6335 11.4697 15.4928C11.329 15.3522 11.25 15.1614 11.25 14.9625V14.2005C11.25 13.536 11.25 12.963 11.3115 12.504C11.3775 12.0127 11.5267 11.541 11.9092 11.1592C12.2917 10.7767 12.7627 10.6275 13.254 10.5615C13.713 10.5 14.286 10.5 14.9505 10.5Z" fill="white"/>
<path d="M14.25 24.75H21.75" stroke="white" stroke-width="2" stroke-linecap="round" stroke-linejoin="round"/>
</svg>
