<svg width="36" height="36" viewBox="0 0 36 36" fill="none" xmlns="http://www.w3.org/2000/svg">
<rect width="36" height="36" rx="18" fill="#2C2C2C"/>
<path d="M19.05 10.75C19.1804 10.6567 19.333 10.5992 19.4926 10.5834C19.6521 10.5675 19.8131 10.5938 19.9593 10.6595C20.1056 10.7253 20.232 10.8283 20.326 10.9583C20.42 11.0882 20.4782 11.2405 20.495 11.4L20.5 11.495V24.505C20.5 24.6653 20.458 24.8229 20.3781 24.962C20.2982 25.101 20.1832 25.2167 20.0447 25.2974C19.9061 25.3781 19.7488 25.421 19.5884 25.4219C19.428 25.4228 19.2703 25.3816 19.1308 25.3025L19.0508 25.2508L13.5666 21.3333H11.3333C10.9128 21.3334 10.5078 21.1746 10.1995 20.8887C9.89118 20.6028 9.70233 20.2109 9.67079 19.7916L9.66663 19.6666V16.3333C9.66649 15.9128 9.8253 15.5078 10.1112 15.1995C10.3971 14.8912 10.789 14.7023 11.2083 14.6708L11.3333 14.6666H13.5666L19.05 10.75ZM24.3891 13.6525C25.0008 14.1996 25.4901 14.8696 25.8251 15.6188C26.1601 16.3679 26.3333 17.1793 26.3333 18C26.3333 18.8206 26.1601 19.632 25.8251 20.3812C25.4901 21.1303 25.0008 21.8003 24.3891 22.3475C24.3078 22.4217 24.2126 22.479 24.1089 22.5162C24.0053 22.5534 23.8954 22.5696 23.7854 22.5641C23.6755 22.5585 23.5677 22.5312 23.4684 22.4838C23.3691 22.4363 23.2801 22.3697 23.2067 22.2877C23.1332 22.2056 23.0768 22.1099 23.0406 22.0059C23.0044 21.902 22.9891 21.7919 22.9957 21.682C23.0023 21.5721 23.0306 21.4646 23.0789 21.3657C23.1273 21.2668 23.1948 21.1785 23.2775 21.1058C23.7145 20.715 24.0641 20.2363 24.3035 19.7011C24.5429 19.166 24.6666 18.5863 24.6666 18C24.6666 16.7666 24.1316 15.6583 23.2775 14.8941C23.1948 14.8215 23.1273 14.7331 23.0789 14.6343C23.0306 14.5354 23.0023 14.4279 22.9957 14.318C22.9891 14.2081 23.0044 14.098 23.0406 13.994C23.0768 13.8901 23.1332 13.7943 23.2067 13.7123C23.2801 13.6303 23.3691 13.5636 23.4684 13.5162C23.5677 13.4687 23.6755 13.4414 23.7854 13.4359C23.8954 13.4303 24.0053 13.4466 24.1089 13.4838C24.2126 13.521 24.3078 13.5783 24.3891 13.6525ZM22.7225 15.5158C23.0718 15.8284 23.3513 16.2111 23.5427 16.639C23.7342 17.0669 23.8332 17.5304 23.8333 17.9991C23.8334 18.4682 23.7345 18.932 23.5431 19.3602C23.3517 19.7884 23.072 20.1714 22.7225 20.4841C22.5644 20.6245 22.359 20.6996 22.1477 20.6941C21.9364 20.6887 21.7351 20.6032 21.5844 20.4549C21.4338 20.3066 21.3452 20.1066 21.3365 19.8955C21.3277 19.6843 21.3996 19.4777 21.5375 19.3175L21.6108 19.2425C21.9525 18.9358 22.1666 18.4933 22.1666 18C22.1668 17.5734 22.0033 17.163 21.71 16.8533L21.6108 16.7575C21.5281 16.6848 21.4606 16.5965 21.4123 16.4976C21.3639 16.3987 21.3356 16.2912 21.329 16.1813C21.3224 16.0714 21.3377 15.9613 21.3739 15.8574C21.4101 15.7534 21.4666 15.6576 21.54 15.5756C21.6134 15.4936 21.7024 15.427 21.8017 15.3795C21.9011 15.3321 22.0088 15.3048 22.1188 15.2992C22.2287 15.2937 22.3387 15.3099 22.4423 15.3471C22.5459 15.3843 22.6411 15.4416 22.7225 15.5158Z" fill="white"/>
</svg>
