<svg width="17" height="17" viewBox="0 0 17 17" fill="none" xmlns="http://www.w3.org/2000/svg">
<g clip-path="url(#clip0_142_4911)">
<path fill-rule="evenodd" clip-rule="evenodd" d="M2.24301 4.11733C2.3187 3.93459 2.44689 3.77839 2.61137 3.6685C2.77584 3.55862 2.96921 3.49998 3.16701 3.5H9.83368C11.1598 3.5 12.4315 4.02678 13.3692 4.96447C14.3069 5.90215 14.8337 7.17392 14.8337 8.5C14.8337 9.82608 14.3069 11.0979 13.3692 12.0355C12.4315 12.9732 11.1598 13.5 9.83368 13.5H3.83368C3.56846 13.5 3.31411 13.3946 3.12657 13.2071C2.93903 13.0196 2.83368 12.7652 2.83368 12.5C2.83368 12.2348 2.93903 11.9804 3.12657 11.7929C3.31411 11.6054 3.56846 11.5 3.83368 11.5H9.83368C10.6293 11.5 11.3924 11.1839 11.955 10.6213C12.5176 10.0587 12.8337 9.29565 12.8337 8.5C12.8337 7.70435 12.5176 6.94129 11.955 6.37868C11.3924 5.81607 10.6293 5.5 9.83368 5.5H5.58101L6.20768 6.12667C6.38975 6.31535 6.49043 6.568 6.48802 6.8302C6.48562 7.0924 6.38034 7.34316 6.19484 7.52848C6.00934 7.71381 5.75848 7.81886 5.49628 7.82101C5.23408 7.82316 4.98153 7.72225 4.79301 7.54L2.45968 5.20667C2.31993 5.06684 2.22477 4.88873 2.1862 4.69485C2.14764 4.50096 2.16741 4.29999 2.24301 4.11733Z" fill="#151515"/>
</g>
<defs>
<clipPath id="clip0_142_4911">
<rect width="16" height="16" fill="white" transform="translate(0.5 0.5)"/>
</clipPath>
</defs>
</svg>
