<svg width="16" height="17" viewBox="0 0 16 17" fill="none" xmlns="http://www.w3.org/2000/svg">
<g clip-path="url(#clip0_137_4537)">
<path d="M5.57386 1.02613C3.97522 1.58071 2.59654 2.63333 1.64035 4.02938C0.684163 5.42542 0.200854 7.09131 0.261418 8.78233C0.321982 10.4734 0.923226 12.1004 1.97684 13.4245C3.03045 14.7485 4.48089 15.6998 6.11511 16.1386C7.44002 16.4805 8.82813 16.4955 10.1601 16.1824C11.3668 15.9113 12.4823 15.3316 13.3976 14.4999C14.3502 13.6078 15.0417 12.473 15.3976 11.2174C15.7845 9.85196 15.8534 8.41604 15.5989 7.01988H8.15886V10.1061H12.4676C12.3815 10.5984 12.197 11.0682 11.9251 11.4874C11.6531 11.9067 11.2994 12.2668 10.8851 12.5461C10.359 12.8942 9.76586 13.1283 9.14387 13.2336C8.52005 13.3496 7.88019 13.3496 7.25636 13.2336C6.6241 13.1029 6.02599 12.8419 5.50011 12.4674C4.6553 11.8694 4.02096 11.0198 3.68762 10.0399C3.34863 9.04162 3.34863 7.95938 3.68762 6.96113C3.9249 6.2614 4.31716 5.62429 4.83511 5.09738C5.42785 4.48331 6.17828 4.04437 7.00406 3.82872C7.82984 3.61307 8.69906 3.62904 9.51637 3.87488C10.1548 4.07086 10.7387 4.4133 11.2214 4.87488C11.7072 4.39154 12.1922 3.90696 12.6764 3.42113C12.9264 3.15988 13.1989 2.91113 13.4451 2.64363C12.7083 1.95797 11.8435 1.42445 10.9001 1.07363C9.18225 0.449863 7.30259 0.4331 5.57386 1.02613Z" fill="white"/>
<path d="M5.57372 1.02624C7.3023 0.432816 9.18196 0.449138 10.9 1.07249C11.8435 1.4257 12.708 1.96179 13.4437 2.64999C13.1937 2.91749 12.93 3.16749 12.675 3.42749C12.19 3.91166 11.7054 4.39416 11.2212 4.87499C10.7385 4.41342 10.1547 4.07098 9.51622 3.87499C8.69919 3.6283 7.82999 3.6114 7.00399 3.82617C6.178 4.04094 5.42711 4.47907 4.83372 5.09249C4.31576 5.61941 3.9235 6.25652 3.68622 6.95624L1.09497 4.94999C2.02248 3.1107 3.62841 1.70377 5.57372 1.02624Z" fill="#E33629"/>
<path d="M0.407438 6.9377C0.546714 6.24744 0.777942 5.57898 1.09494 4.9502L3.68619 6.96145C3.34721 7.9597 3.34721 9.04194 3.68619 10.0402C2.82285 10.7069 1.9591 11.3769 1.09494 12.0502C0.301376 10.4706 0.0593537 8.67082 0.407438 6.9377Z" fill="#F8BD00"/>
<path d="M8.15876 7.01855H15.5988C15.8533 8.41472 15.7844 9.85064 15.3975 11.2161C15.0416 12.4717 14.3501 13.6065 13.3975 14.4986C12.5613 13.8461 11.7213 13.1986 10.885 12.5461C11.2996 12.2664 11.6535 11.9059 11.9254 11.4862C12.1973 11.0665 12.3817 10.5962 12.4675 10.1036H8.15876C8.15751 9.07605 8.15876 8.0473 8.15876 7.01855Z" fill="#587DBD"/>
<path d="M1.09375 12.05C1.95792 11.3834 2.82167 10.7134 3.685 10.04C4.01901 11.0203 4.65426 11.8699 5.5 12.4675C6.02751 12.8404 6.62691 13.0992 7.26 13.2275C7.88382 13.3435 8.52368 13.3435 9.1475 13.2275C9.76949 13.1223 10.3626 12.8881 10.8888 12.54C11.725 13.1925 12.565 13.84 13.4012 14.4925C12.4861 15.3247 11.3705 15.9049 10.1637 16.1763C8.83176 16.4894 7.44365 16.4744 6.11875 16.1325C5.07088 15.8528 4.09209 15.3595 3.24375 14.6838C2.34583 13.9709 1.61244 13.0725 1.09375 12.05Z" fill="#319F43"/>
</g>
<defs>
<clipPath id="clip0_137_4537">
<rect width="16" height="16" fill="white" transform="translate(0 0.5)"/>
</clipPath>
</defs>
</svg>
