<svg width="17" height="17" viewBox="0 0 17 17" fill="none" xmlns="http://www.w3.org/2000/svg">
<path d="M3.16683 13.8332C2.80016 13.8332 2.48639 13.7027 2.2255 13.4418C1.96461 13.1809 1.83394 12.8669 1.8335 12.4998V4.49984C1.8335 4.13317 1.96416 3.81939 2.2255 3.5585C2.48683 3.29761 2.80061 3.16695 3.16683 3.1665H13.8335C14.2002 3.1665 14.5142 3.29717 14.7755 3.5585C15.0368 3.81984 15.1673 4.13362 15.1668 4.49984V12.4998C15.1668 12.8665 15.0364 13.1805 14.7755 13.4418C14.5146 13.7032 14.2006 13.8336 13.8335 13.8332H3.16683ZM8.50016 9.1665L13.8335 5.83317V4.49984L8.50016 7.83317L3.16683 4.49984V5.83317L8.50016 9.1665Z" fill="#151515"/>
</svg>
