<svg width="16" height="17" viewBox="0 0 16 17" fill="none" xmlns="http://www.w3.org/2000/svg">
<path fill-rule="evenodd" clip-rule="evenodd" d="M7.23008 5.89672C7.13645 5.99047 7.08385 6.11755 7.08385 6.25005C7.08385 6.38255 7.13645 6.50963 7.23008 6.60338L8.37675 7.75005H2.91675C2.78414 7.75005 2.65696 7.80273 2.56319 7.8965C2.46943 7.99026 2.41675 8.11744 2.41675 8.25005C2.41675 8.38266 2.46943 8.50983 2.56319 8.6036C2.65696 8.69737 2.78414 8.75005 2.91675 8.75005H8.37675L7.23008 9.89672C7.18096 9.94249 7.14156 9.99769 7.11423 10.059C7.0869 10.1204 7.0722 10.1866 7.07102 10.2537C7.06984 10.3208 7.08219 10.3875 7.10733 10.4498C7.13248 10.512 7.16991 10.5686 7.21739 10.6161C7.26487 10.6636 7.32142 10.701 7.38368 10.7261C7.44594 10.7513 7.51263 10.7636 7.57976 10.7624C7.6469 10.7613 7.71311 10.7466 7.77444 10.7192C7.83577 10.6919 7.89097 10.6525 7.93675 10.6034L9.93675 8.60338C10.0304 8.50963 10.083 8.38255 10.083 8.25005C10.083 8.11755 10.0304 7.99047 9.93675 7.89672L7.93675 5.89672C7.843 5.80308 7.71592 5.75049 7.58342 5.75049C7.45091 5.75049 7.32383 5.80308 7.23008 5.89672Z" fill="#151515"/>
<path d="M8.25 4.41784C8.25 4.7165 8.43267 4.97784 8.644 5.18917L10.644 7.18917C10.7833 7.32846 10.8938 7.49382 10.9692 7.67581C11.0445 7.8578 11.0833 8.05285 11.0833 8.24984C11.0833 8.44682 11.0445 8.64188 10.9692 8.82387C10.8938 9.00586 10.7833 9.17122 10.644 9.3105L8.644 11.3105C8.43267 11.5218 8.25 11.7832 8.25 12.0818V13.5832C9.66449 13.5832 11.021 13.0213 12.0212 12.0211C13.0214 11.0209 13.5833 9.66433 13.5833 8.24984C13.5833 6.83535 13.0214 5.4788 12.0212 4.4786C11.021 3.47841 9.66449 2.9165 8.25 2.9165V4.41784Z" fill="#151515"/>
</svg>
