<svg width="55" height="55" viewBox="0 0 55 55" fill="none" xmlns="http://www.w3.org/2000/svg">
<rect width="55" height="55" rx="16" fill="#AAFF7C"/>
<path d="M35.6 36L29.3 29.7C28.8 30.1 28.225 30.4167 27.575 30.65C26.925 30.8833 26.2333 31 25.5 31C23.6833 31 22.146 30.3707 20.888 29.112C19.63 27.8533 19.0007 26.316 19 24.5C18.9993 22.684 19.6287 21.1467 20.888 19.888C22.1473 18.6293 23.6847 18 25.5 18C27.3153 18 28.853 18.6293 30.113 19.888C31.373 21.1467 32.002 22.684 32 24.5C32 25.2333 31.8833 25.925 31.65 26.575C31.4167 27.225 31.1 27.8 30.7 28.3L37 34.6L35.6 36ZM25.5 29C26.75 29 27.8127 28.5627 28.688 27.688C29.5633 26.8133 30.0007 25.7507 30 24.5C29.9993 23.2493 29.562 22.187 28.688 21.313C27.814 20.439 26.7513 20.0013 25.5 20C24.2487 19.9987 23.1863 20.4363 22.313 21.313C21.4397 22.1897 21.002 23.252 21 24.5C20.998 25.748 21.4357 26.8107 22.313 27.688C23.1903 28.5653 24.2527 29.0027 25.5 29Z" fill="#39A300"/>
</svg>
