<svg width="24" height="24" viewBox="0 0 24 24" fill="none" xmlns="http://www.w3.org/2000/svg">
<path d="M8.07056 5.31409C9.1311 5.31409 10.1486 5.73526 10.8987 6.48499L10.8997 6.48596C11.0921 6.67766 11.3359 6.9127 11.6282 7.18811L12.3147 7.83459L13.0002 7.18713C13.2916 6.91196 13.5348 6.67822 13.7268 6.48694C14.4737 5.74358 15.4836 5.32474 16.5374 5.3219C17.5912 5.31908 18.6038 5.73197 19.3547 6.47131C20.1057 7.21077 20.5347 8.21731 20.5481 9.27112C20.5615 10.3249 20.1578 11.341 19.426 12.0992L12.3127 19.2125L5.18677 12.0875C4.46256 11.3347 4.06139 10.3279 4.06958 9.28284C4.07787 8.23315 4.49926 7.22781 5.24243 6.48499H5.24341C5.9934 5.73542 7.01021 5.31419 8.07056 5.31409Z" stroke="#AAFF7C" stroke-width="2"/>
</svg>
