<svg width="16" height="16" viewBox="0 0 16 16" fill="none" xmlns="http://www.w3.org/2000/svg">
<path d="M2 13.0143V6.32857C2 6.09333 2.05325 5.87048 2.15975 5.66C2.26625 5.44952 2.413 5.27619 2.6 5.14L7.1 1.79714C7.3625 1.59905 7.6625 1.5 8 1.5C8.3375 1.5 8.6375 1.59905 8.9 1.79714L13.4 5.14C13.5875 5.27619 13.7345 5.44952 13.841 5.66C13.9475 5.87048 14.0005 6.09333 14 6.32857V13.0143C14 13.4229 13.853 13.7727 13.559 14.0639C13.265 14.3551 12.912 14.5005 12.5 14.5H10.25C10.0375 14.5 9.8595 14.4287 9.716 14.2861C9.5725 14.1434 9.5005 13.9671 9.5 13.7571V10.0429C9.5 9.83238 9.428 9.65607 9.284 9.51394C9.14 9.37181 8.962 9.30049 8.75 9.3H7.25C7.0375 9.3 6.8595 9.37131 6.716 9.51394C6.5725 9.65657 6.5005 9.83287 6.5 10.0429V13.7571C6.5 13.9676 6.428 14.1442 6.284 14.2868C6.14 14.4294 5.962 14.5005 5.75 14.5H3.5C3.0875 14.5 2.7345 14.3546 2.441 14.0639C2.1475 13.7732 2.0005 13.4233 2 13.0143Z" fill="white"/>
</svg>
