<svg width="32" height="32" viewBox="0 0 32 32" fill="none" xmlns="http://www.w3.org/2000/svg">
<path d="M4 26.125V12.625C4 12.15 4.1065 11.7 4.3195 11.275C4.5325 10.85 4.826 10.5 5.2 10.225L14.2 3.475C14.725 3.075 15.325 2.875 16 2.875C16.675 2.875 17.275 3.075 17.8 3.475L26.8 10.225C27.175 10.5 27.469 10.85 27.682 11.275C27.895 11.7 28.001 12.15 28 12.625V26.125C28 26.95 27.706 27.6565 27.118 28.2445C26.53 28.8325 25.824 29.126 25 29.125H20.5C20.075 29.125 19.719 28.981 19.432 28.693C19.145 28.405 19.001 28.049 19 27.625V20.125C19 19.7 18.856 19.344 18.568 19.057C18.28 18.77 17.924 18.626 17.5 18.625H14.5C14.075 18.625 13.719 18.769 13.432 19.057C13.145 19.345 13.001 19.701 13 20.125V27.625C13 28.05 12.856 28.4065 12.568 28.6945C12.28 28.9825 11.924 29.126 11.5 29.125H7C6.175 29.125 5.469 28.8315 4.882 28.2445C4.295 27.6575 4.001 26.951 4 26.125Z" fill="white"/>
</svg>
