<svg width="16" height="16" viewBox="0 0 16 16" fill="none" xmlns="http://www.w3.org/2000/svg">
<path d="M5.67333 1.33337H10.3267C10.4813 1.33337 10.6 1.33337 10.704 1.34337C11.4427 1.41604 12.0473 1.86004 12.304 2.45804H3.696C3.95267 1.86004 4.55733 1.41604 5.296 1.34337C5.39867 1.33337 5.51733 1.33337 5.67333 1.33337ZM4.20667 3.14871C3.28 3.14871 2.52 3.70871 2.26667 4.45137L2.25067 4.49804C2.516 4.41804 2.79267 4.36471 3.072 4.32937C3.792 4.23671 4.70267 4.23671 5.76 4.23671H10.3547C11.412 4.23671 12.322 4.23671 13.0427 4.32937C13.3227 4.36537 13.5987 4.41737 13.864 4.49804L13.8487 4.45137C13.5953 3.70871 12.8353 3.14871 11.908 3.14871H4.20667Z" fill="white"/>
<path fill-rule="evenodd" clip-rule="evenodd" d="M5.78133 5.02795H10.2187C12.468 5.02795 13.5933 5.02795 14.2253 5.68595C14.8573 6.34395 14.708 7.35995 14.4107 9.39262L14.1293 11.3206C13.896 12.9146 13.7793 13.712 13.1813 14.1893C12.5833 14.6666 11.7013 14.6666 9.93667 14.6666H6.06333C4.29933 14.6666 3.41667 14.6666 2.81867 14.1893C2.22067 13.712 2.104 12.9146 1.87067 11.3206L1.58933 9.39329C1.29133 7.35995 1.14267 6.34395 1.77467 5.68595C2.40667 5.02795 3.532 5.02795 5.78133 5.02795ZM5.33333 12C5.33333 11.724 5.582 11.5 5.88867 11.5H10.1113C10.418 11.5 10.6667 11.724 10.6667 12C10.6667 12.276 10.418 12.5 10.1113 12.5H5.88867C5.582 12.5 5.33333 12.276 5.33333 12Z" fill="white"/>
</svg>
