<svg width="32" height="32" viewBox="0 0 32 32" fill="none" xmlns="http://www.w3.org/2000/svg">
<path d="M11.8944 4H19.9082C20.1745 4 20.3789 4 20.558 4.01896C21.8301 4.15673 22.8714 4.99853 23.3134 6.13229H8.48909C8.93111 4.99853 9.97245 4.15673 11.2445 4.01896C11.4214 4 11.6257 4 11.8944 4ZM9.36854 7.44175C7.77268 7.44175 6.46383 8.50348 6.02755 9.91152L6 10C6.45695 9.84833 6.93341 9.74721 7.41447 9.68022C8.65442 9.50453 10.2227 9.50453 12.0436 9.50453H19.9564C21.7773 9.50453 23.3444 9.50453 24.5855 9.68022C25.0677 9.74847 25.5431 9.84706 26 10L25.9736 9.91152C25.5373 8.50348 24.2285 7.44175 22.6315 7.44175H9.36854Z" fill="white"/>
<path fill-rule="evenodd" clip-rule="evenodd" d="M12.0067 11H19.9938C24.0425 11 26.0681 11 27.2057 12.1605C28.3433 13.3211 28.0745 15.113 27.5393 18.6981L27.0329 22.0986C26.6129 24.9099 26.4029 26.3162 25.3265 27.1581C24.2501 28 22.6625 28 19.4862 28H12.5143C9.33912 28 7.75034 28 6.67396 27.1581C5.59757 26.3162 5.38758 24.9099 4.96758 22.0986L4.46119 18.6993C3.9248 15.113 3.6572 13.3211 4.79478 12.1605C5.93237 11 7.95794 11 12.0067 11ZM11.2003 23.2967C11.2003 22.8099 11.6479 22.4149 12.1999 22.4149H19.8006C20.3526 22.4149 20.8002 22.8099 20.8002 23.2967C20.8002 23.7835 20.3526 24.1786 19.8006 24.1786H12.1999C11.6479 24.1786 11.2003 23.7835 11.2003 23.2967Z" fill="white"/>
</svg>
