<svg width="52" height="52" viewBox="0 0 52 52" fill="none" xmlns="http://www.w3.org/2000/svg">
<rect x="0.5" y="0.5" width="51" height="51" rx="25.5" stroke="#5B5B5B"/>
<path fill-rule="evenodd" clip-rule="evenodd" d="M19.7796 20.815C20.5609 20.0339 21.6206 19.5951 22.7254 19.5951C23.8303 19.5951 24.8899 20.0339 25.6712 20.815C25.824 20.9673 26.0207 21.1567 26.2612 21.3834C26.5012 21.1567 26.6976 20.9673 26.8504 20.815C27.6285 20.0406 28.6808 19.6045 29.7786 19.6016C30.8764 19.5986 31.931 20.0291 32.7132 20.7993C33.4955 21.5696 33.9421 22.6174 33.9561 23.7152C33.9701 24.8129 33.5503 25.8718 32.7879 26.6617L26.8496 32.6C26.6933 32.7563 26.4814 32.844 26.2604 32.844C26.0394 32.844 25.8275 32.7563 25.6712 32.6L19.7329 26.6625C18.9713 25.877 18.5492 24.8235 18.5577 23.7294C18.5663 22.6353 19.0057 21.5885 19.7796 20.815Z" fill="white"/>
</svg>
