<svg width="52" height="52" viewBox="0 0 52 52" fill="none" xmlns="http://www.w3.org/2000/svg">
<rect opacity="0.3" x="0.5" y="0.5" width="51" height="51" rx="25.5" stroke="white"/>
<path d="M26 33C27.1046 33 28 32.1046 28 31C28 29.8954 27.1046 29 26 29C24.8954 29 24 29.8954 24 31C24 32.1046 24.8954 33 26 33Z" fill="white"/>
<path d="M26 28C27.1046 28 28 27.1046 28 26C28 24.8954 27.1046 24 26 24C24.8954 24 24 24.8954 24 26C24 27.1046 24.8954 28 26 28Z" fill="white"/>
<path d="M26 23C27.1046 23 28 22.1046 28 21C28 19.8954 27.1046 19 26 19C24.8954 19 24 19.8954 24 21C24 22.1046 24.8954 23 26 23Z" fill="white"/>
</svg>
